# Blender v2.82 (sub 7) OBJ File: ''
# www.blender.org
mtllib construction_small.mtl
o Construction_Site_ResourceHut_ResourceHut_PointyTower_Cylinder.
v 0.496848 0.235389 -0.425031
v 0.482659 0.341001 -0.419644
v 0.526112 0.341001 -0.475259
v 0.524318 0.235389 -0.460188
v 0.559807 0.341001 -0.448933
v 0.545618 0.235389 -0.443546
v 0.516354 0.341001 -0.393318
v 0.518148 0.235389 -0.408389
v 0.523463 -0.033725 -0.453009
v 0.538859 -0.033725 -0.440980
v 0.519003 -0.033725 -0.415568
v 0.503607 -0.033725 -0.427597
v 0.543438 0.425678 -0.442719
v 0.524042 0.425678 -0.457874
v 0.499028 0.425678 -0.425858
v 0.518424 0.425678 -0.410703
v -0.396768 0.235389 -0.418184
v -0.393568 0.341001 -0.403348
v -0.442047 0.341001 -0.454642
v -0.427415 0.235389 -0.450610
v -0.410971 0.341001 -0.484013
v -0.407770 0.235389 -0.469177
v -0.362492 0.341001 -0.432719
v -0.377124 0.235389 -0.436751
v -0.420445 -0.033725 -0.448689
v -0.406245 -0.033725 -0.462110
v -0.384093 -0.033725 -0.438672
v -0.398293 -0.033725 -0.425251
v -0.407278 0.425678 -0.466899
v -0.425168 0.425678 -0.449991
v -0.397260 0.425678 -0.420463
v -0.379371 0.425678 -0.437370
v 0.520511 0.235389 0.462291
v 0.521871 0.341001 0.477407
v 0.480038 0.341001 0.420563
v 0.494066 0.235389 0.426356
v 0.514476 0.341001 0.395219
v 0.515836 0.235389 0.410335
v 0.556309 0.341001 0.452063
v 0.542281 0.235389 0.446270
v 0.500748 -0.033725 0.429116
v 0.516484 -0.033725 0.417536
v 0.535599 -0.033725 0.443509
v 0.519863 -0.033725 0.455090
v 0.516045 0.425678 0.412656
v 0.496220 0.425678 0.427246
v 0.520302 0.425678 0.459969
v 0.540127 0.425678 0.445380
v -0.404379 0.235389 0.445777
v -0.419227 0.341001 0.448920
v -0.367746 0.341001 0.400640
v -0.371835 0.235389 0.415256
v -0.338496 0.341001 0.431830
v -0.353345 0.235389 0.434973
v -0.389977 0.341001 0.480110
v -0.385889 0.235389 0.465493
v -0.373783 -0.033725 0.422219
v -0.360417 -0.033725 0.436470
v -0.383941 -0.033725 0.458531
v -0.397306 -0.033725 0.444279
v -0.355625 0.425678 0.435455
v -0.372463 0.425678 0.417501
v -0.402099 0.425678 0.445294
v -0.385261 0.425678 0.463249
v 0.538119 0.347187 -0.429249
v 0.538119 0.370233 -0.429249
v 0.503879 0.370233 -0.429165
v 0.503879 0.347187 -0.429165
v 0.538607 0.297123 -0.229594
v 0.538607 0.320169 -0.229594
v 0.504367 0.320169 -0.229510
v 0.504966 0.301508 0.019982
v 0.539205 0.301508 0.019898
v 0.504367 0.297123 -0.229510
v 0.539205 0.278462 0.019898
v 0.504966 0.278462 0.019982
v 0.507524 0.347187 -0.430706
v 0.507524 0.370233 -0.430706
v 0.507524 0.370233 -0.464946
v 0.507524 0.347187 -0.464946
v 0.303568 0.297123 -0.430706
v 0.303568 0.320169 -0.430706
v 0.303568 0.320169 -0.464945
v 0.053460 0.301508 -0.473861
v 0.053460 0.301508 -0.439621
v 0.303568 0.297123 -0.464945
v 0.053460 0.278462 -0.439621
v 0.053460 0.278462 -0.473861
v -0.202577 0.293322 -0.474338
v -0.202577 0.316368 -0.474338
v -0.366900 0.370233 -0.474338
v -0.366900 0.347187 -0.474338
v -0.366900 0.370233 -0.440098
v -0.366900 0.347187 -0.440098
v -0.202577 0.293322 -0.440098
v -0.202577 0.316368 -0.440098
v 0.055448 0.278462 -0.474338
v 0.055448 0.278462 -0.440098
v 0.055448 0.301508 -0.474338
v 0.055448 0.301508 -0.440098
v 0.509617 0.347187 0.447780
v 0.509617 0.370233 0.447780
v 0.509618 0.370233 0.413541
v 0.509618 0.347187 0.413541
v 0.311286 0.297123 0.447780
v 0.311286 0.320169 0.447780
v 0.311286 0.320169 0.413541
v 0.068076 0.301508 0.413541
v 0.068076 0.301508 0.447780
v 0.311286 0.297123 0.413541
v 0.068076 0.278462 0.447780
v 0.068077 0.278462 0.413541
v -0.201211 0.293322 0.413541
v -0.201210 0.316368 0.413541
v -0.365534 0.370233 0.413541
v -0.365534 0.347187 0.413541
v -0.365534 0.370233 0.447780
v -0.365534 0.347187 0.447780
v -0.201210 0.293322 0.447780
v -0.201210 0.316368 0.447780
v 0.067480 0.278462 0.413541
v 0.067480 0.278462 0.447780
v 0.067480 0.301508 0.413541
v 0.067480 0.301508 0.447780
v -0.379608 0.347187 -0.434782
v -0.379609 0.370233 -0.434782
v -0.413848 0.370233 -0.434698
v -0.413848 0.347187 -0.434698
v -0.379121 0.297123 -0.235127
v -0.379121 0.320169 -0.235127
v -0.413360 0.320169 -0.235043
v -0.410262 0.301508 0.016296
v -0.376023 0.301508 0.016212
v -0.413360 0.297123 -0.235043
v -0.376023 0.278462 0.016212
v -0.410262 0.278462 0.016296
v -0.408526 0.293322 0.275319
v -0.408526 0.316368 0.275319
v -0.408122 0.370233 0.440740
v -0.408122 0.347187 0.440740
v -0.373882 0.370233 0.440656
v -0.373882 0.347187 0.440656
v -0.374287 0.293322 0.275235
v -0.374287 0.316368 0.275235
v -0.406661 0.278462 0.022078
v -0.374921 0.278462 0.015488
v -0.409161 0.301508 0.015572
v -0.374921 0.301508 0.015488
v 0.504775 0.293322 0.280694
v 0.504775 0.316368 0.280694
v 0.505180 0.370233 0.446115
v 0.505180 0.347187 0.446115
v 0.539419 0.370233 0.446031
v 0.539419 0.347187 0.446031
v 0.539015 0.293322 0.280611
v 0.539015 0.316368 0.280611
v 0.504141 0.278462 0.020948
v 0.538380 0.278462 0.020864
v 0.504141 0.301508 0.020948
v 0.538380 0.301508 0.020864
vt 0.588492 0.000000
vt 0.625000 0.000000
vt 0.625000 0.250000
vt 0.588492 0.250000
vt 0.625000 0.500000
vt 0.588492 0.500000
vt 0.625000 0.750000
vt 0.588492 0.750000
vt 0.625000 1.000000
vt 0.588492 1.000000
vt 0.125000 0.500000
vt 0.375000 0.500000
vt 0.375000 0.750000
vt 0.125000 0.750000
vt 0.678042 0.553042
vt 0.821958 0.553042
vt 0.821958 0.696958
vt 0.678042 0.696958
vt 0.875000 0.500000
vt 0.875000 0.750000
vt 0.375000 1.000000
vt 0.375000 0.250000
vt 0.375000 0.000000
vt 0.588492 0.000000
vt 0.625000 0.000000
vt 0.625000 0.250000
vt 0.588492 0.250000
vt 0.625000 0.500000
vt 0.588492 0.500000
vt 0.625000 0.750000
vt 0.588492 0.750000
vt 0.625000 1.000000
vt 0.588492 1.000000
vt 0.125000 0.500000
vt 0.375000 0.500000
vt 0.375000 0.750000
vt 0.125000 0.750000
vt 0.678042 0.553042
vt 0.821958 0.553042
vt 0.821958 0.696958
vt 0.678042 0.696958
vt 0.875000 0.500000
vt 0.875000 0.750000
vt 0.375000 1.000000
vt 0.375000 0.250000
vt 0.375000 0.000000
vt 0.588492 0.000000
vt 0.625000 0.000000
vt 0.625000 0.250000
vt 0.588492 0.250000
vt 0.625000 0.500000
vt 0.588492 0.500000
vt 0.625000 0.750000
vt 0.588492 0.750000
vt 0.625000 1.000000
vt 0.588492 1.000000
vt 0.125000 0.500000
vt 0.375000 0.500000
vt 0.375000 0.750000
vt 0.125000 0.750000
vt 0.678042 0.553042
vt 0.821958 0.553042
vt 0.821958 0.696958
vt 0.678042 0.696958
vt 0.875000 0.500000
vt 0.875000 0.750000
vt 0.375000 1.000000
vt 0.375000 0.250000
vt 0.375000 0.000000
vt 0.588492 0.000000
vt 0.625000 0.000000
vt 0.625000 0.250000
vt 0.588492 0.250000
vt 0.625000 0.500000
vt 0.588492 0.500000
vt 0.625000 0.750000
vt 0.588492 0.750000
vt 0.625000 1.000000
vt 0.588492 1.000000
vt 0.125000 0.500000
vt 0.375000 0.500000
vt 0.375000 0.750000
vt 0.125000 0.750000
vt 0.678042 0.553042
vt 0.821958 0.553042
vt 0.821958 0.696958
vt 0.678042 0.696958
vt 0.875000 0.500000
vt 0.875000 0.750000
vt 0.375000 1.000000
vt 0.375000 0.250000
vt 0.375000 0.000000
vt 0.375000 0.000000
vt 0.375000 0.250000
vt 0.625000 0.250000
vt 0.625000 0.000000
vt 0.375000 0.942605
vt 0.375000 1.000000
vt 0.625000 1.000000
vt 0.625000 0.942605
vt 0.817605 0.500000
vt 0.817605 0.750000
vt 0.875000 0.750000
vt 0.875000 0.500000
vt 0.747223 0.500000
vt 0.747223 0.750000
vt 0.125000 0.500000
vt 0.125000 0.750000
vt 0.182395 0.750000
vt 0.182395 0.500000
vt 0.375000 0.872223
vt 0.625000 0.872223
vt 0.375000 0.307395
vt 0.625000 0.307395
vt 0.375000 0.377777
vt 0.625000 0.377777
vt 0.252777 0.750000
vt 0.252777 0.500000
vt 0.375000 0.000000
vt 0.375000 0.250000
vt 0.625000 0.250000
vt 0.625000 0.000000
vt 0.375000 0.942605
vt 0.375000 1.000000
vt 0.625000 1.000000
vt 0.625000 0.942605
vt 0.817605 0.500000
vt 0.817605 0.750000
vt 0.875000 0.750000
vt 0.875000 0.500000
vt 0.747223 0.500000
vt 0.747223 0.750000
vt 0.125000 0.500000
vt 0.125000 0.750000
vt 0.182395 0.750000
vt 0.182395 0.500000
vt 0.375000 0.872223
vt 0.625000 0.872223
vt 0.375000 0.307395
vt 0.625000 0.307395
vt 0.375000 0.377777
vt 0.625000 0.377777
vt 0.252777 0.750000
vt 0.252777 0.500000
vt 0.375000 0.452447
vt 0.375000 0.500000
vt 0.625000 0.500000
vt 0.625000 0.452447
vt 0.375000 0.750000
vt 0.625000 0.750000
vt 0.327447 0.500000
vt 0.327447 0.750000
vt 0.375000 0.797553
vt 0.625000 0.797553
vt 0.672553 0.750000
vt 0.672553 0.500000
vt 0.252777 0.500000
vt 0.252777 0.750000
vt 0.375000 0.377777
vt 0.625000 0.377777
vt 0.375000 0.872223
vt 0.625000 0.872223
vt 0.747223 0.750000
vt 0.747223 0.500000
vt 0.375000 0.000000
vt 0.375000 0.250000
vt 0.625000 0.250000
vt 0.625000 0.000000
vt 0.375000 0.942605
vt 0.375000 1.000000
vt 0.625000 1.000000
vt 0.625000 0.942605
vt 0.817605 0.500000
vt 0.817605 0.750000
vt 0.875000 0.750000
vt 0.875000 0.500000
vt 0.747223 0.500000
vt 0.747223 0.750000
vt 0.125000 0.500000
vt 0.125000 0.750000
vt 0.182395 0.750000
vt 0.182395 0.500000
vt 0.375000 0.872223
vt 0.625000 0.872223
vt 0.375000 0.307395
vt 0.625000 0.307395
vt 0.375000 0.377777
vt 0.625000 0.377777
vt 0.252777 0.750000
vt 0.252777 0.500000
vt 0.375000 0.452447
vt 0.375000 0.500000
vt 0.625000 0.500000
vt 0.625000 0.452447
vt 0.375000 0.750000
vt 0.625000 0.750000
vt 0.327447 0.500000
vt 0.327447 0.750000
vt 0.375000 0.797553
vt 0.625000 0.797553
vt 0.672553 0.750000
vt 0.672553 0.500000
vt 0.252777 0.500000
vt 0.252777 0.750000
vt 0.375000 0.377777
vt 0.625000 0.377777
vt 0.375000 0.872223
vt 0.625000 0.872223
vt 0.747223 0.750000
vt 0.747223 0.500000
vt 0.375000 0.000000
vt 0.375000 0.250000
vt 0.625000 0.250000
vt 0.625000 0.000000
vt 0.375000 0.942605
vt 0.375000 1.000000
vt 0.625000 1.000000
vt 0.625000 0.942605
vt 0.817605 0.500000
vt 0.817605 0.750000
vt 0.875000 0.750000
vt 0.875000 0.500000
vt 0.747223 0.500000
vt 0.747223 0.750000
vt 0.125000 0.500000
vt 0.125000 0.750000
vt 0.182395 0.750000
vt 0.182395 0.500000
vt 0.375000 0.872223
vt 0.625000 0.872223
vt 0.375000 0.307395
vt 0.625000 0.307395
vt 0.375000 0.377777
vt 0.625000 0.377777
vt 0.252777 0.750000
vt 0.252777 0.500000
vt 0.375000 0.452447
vt 0.375000 0.500000
vt 0.625000 0.500000
vt 0.625000 0.452447
vt 0.375000 0.750000
vt 0.625000 0.750000
vt 0.327447 0.500000
vt 0.327447 0.750000
vt 0.375000 0.797553
vt 0.625000 0.797553
vt 0.672553 0.750000
vt 0.672553 0.500000
vt 0.252777 0.500000
vt 0.252777 0.750000
vt 0.375000 0.377777
vt 0.625000 0.377777
vt 0.375000 0.872223
vt 0.625000 0.872223
vt 0.747223 0.750000
vt 0.747223 0.500000
vt 0.375000 0.452447
vt 0.375000 0.500000
vt 0.625000 0.500000
vt 0.625000 0.452447
vt 0.375000 0.750000
vt 0.625000 0.750000
vt 0.327447 0.500000
vt 0.327447 0.750000
vt 0.375000 0.797553
vt 0.625000 0.797553
vt 0.672553 0.750000
vt 0.672553 0.500000
vt 0.252777 0.500000
vt 0.252777 0.750000
vt 0.375000 0.377777
vt 0.625000 0.377777
vt 0.375000 0.872223
vt 0.625000 0.872223
vt 0.747223 0.750000
vt 0.747223 0.500000
vn -0.7858 -0.0743 -0.6140
vn 0.6111 -0.1220 -0.7821
vn 0.7858 -0.0743 0.6140
vn -0.6111 -0.1220 0.7821
vn -0.0000 -1.0000 -0.0000
vn 0.0000 1.0000 0.0000
vn -0.7835 0.1065 -0.6122
vn 0.6063 0.1741 -0.7760
vn 0.7835 0.1065 0.6122
vn -0.6063 0.1741 0.7760
vn -0.6155 -0.0230 0.7878
vn 0.7879 -0.0139 0.6156
vn 0.6155 -0.0230 -0.7878
vn -0.7879 -0.0139 -0.6156
vn -0.7248 -0.0743 0.6850
vn -0.6818 -0.1220 -0.7213
vn 0.7248 -0.0743 -0.6850
vn 0.6818 -0.1220 0.7213
vn -0.7226 0.1065 0.6830
vn -0.6764 0.1741 -0.7157
vn 0.7226 0.1065 -0.6830
vn 0.6764 0.1741 0.7157
vn 0.6867 -0.0230 0.7266
vn 0.7267 -0.0139 -0.6868
vn -0.6867 -0.0230 -0.7266
vn -0.7267 -0.0139 0.6868
vn -0.8032 -0.0743 0.5911
vn -0.5883 -0.1220 -0.7994
vn 0.8032 -0.0743 -0.5911
vn 0.5883 -0.1220 0.7994
vn -0.8008 0.1065 0.5893
vn -0.5837 0.1741 -0.7931
vn 0.8008 0.1065 -0.5893
vn 0.5837 0.1741 0.7931
vn 0.5926 -0.0230 0.8052
vn 0.8053 -0.0139 -0.5927
vn -0.5926 -0.0230 -0.8052
vn -0.8053 -0.0139 0.5927
vn -0.6822 -0.0743 -0.7274
vn 0.7240 -0.1220 -0.6789
vn 0.6822 -0.0743 0.7274
vn -0.7240 -0.1220 0.6790
vn -0.6802 0.1065 -0.7253
vn 0.7183 0.1741 -0.6736
vn 0.6802 0.1065 0.7253
vn -0.7183 0.1741 0.6736
vn -0.7292 -0.0230 0.6839
vn 0.6840 -0.0139 0.7294
vn 0.7292 -0.0230 -0.6839
vn -0.6840 -0.0139 -0.7293
vn -0.0025 0.0000 -1.0000
vn 1.0000 -0.0000 -0.0024
vn 0.0006 0.9700 0.2432
vn 0.0002 0.9972 0.0746
vn -0.0006 -0.9700 -0.2432
vn -1.0000 0.0000 0.0024
vn -0.0002 -0.9972 -0.0746
vn 1.0000 0.0000 0.0000
vn 0.0000 0.0000 1.0000
vn -0.2384 0.9712 0.0000
vn -0.0744 0.9972 0.0000
vn 0.2384 -0.9712 0.0000
vn -0.0356 0.0000 0.9994
vn -0.0000 0.0000 -1.0000
vn 0.0356 0.0000 -0.9994
vn 0.0744 -0.9972 0.0000
vn -1.0000 0.0000 0.0000
vn -0.3115 -0.9502 -0.0000
vn 0.3115 0.9502 0.0000
vn -0.0575 -0.9983 0.0000
vn 0.0575 0.9983 0.0000
vn -0.2447 0.9696 -0.0000
vn -0.0765 0.9971 0.0000
vn 0.2447 -0.9696 0.0000
vn 0.0765 -0.9971 0.0000
vn -0.0552 -0.9985 0.0000
vn 0.0552 0.9985 0.0000
vn 1.0000 -0.0015 -0.0032
vn 0.9999 0.0017 -0.0115
vn 0.0002 0.9973 0.0740
vn 0.9999 0.0000 -0.0123
vn -1.0000 0.0016 0.0032
vn -0.9999 -0.0016 0.0117
vn -0.9999 0.0000 0.0123
vn -0.0002 -0.9973 -0.0740
vn 0.0025 0.0000 1.0000
vn 0.0008 -0.9509 0.3096
vn -0.0008 0.9509 -0.3096
vn 0.0059 -0.9983 0.0579
vn -0.9985 -0.0541 0.0007
vn -0.0001 0.9984 -0.0571
vn 0.0001 -0.9984 0.0571
usemtl Metal
s 1
f 1/1/1 2/2/1 3/3/1 4/4/1
f 4/4/2 3/3/2 5/5/2 6/6/2
f 6/6/3 5/5/3 7/7/3 8/8/3
f 8/8/4 7/7/4 2/9/4 1/10/4
f 9/11/5 10/12/5 11/13/5 12/14/5
f 13/15/6 14/16/6 15/17/6 16/18/6
f 15/17/7 14/16/7 3/19/7 2/20/7
f 14/16/8 13/15/8 5/5/8 3/19/8
f 13/15/9 16/18/9 7/7/9 5/5/9
f 16/18/10 15/17/10 2/20/10 7/7/10
f 11/13/11 8/8/11 1/10/11 12/21/11
f 10/12/12 6/6/12 8/8/12 11/13/12
f 9/22/13 4/4/13 6/6/13 10/12/13
f 12/23/14 1/1/14 4/4/14 9/22/14
f 17/24/15 18/25/15 19/26/15 20/27/15
f 20/27/16 19/26/16 21/28/16 22/29/16
f 22/29/17 21/28/17 23/30/17 24/31/17
f 24/31/18 23/30/18 18/32/18 17/33/18
f 25/34/5 26/35/5 27/36/5 28/37/5
f 29/38/6 30/39/6 31/40/6 32/41/6
f 31/40/19 30/39/19 19/42/19 18/43/19
f 30/39/20 29/38/20 21/28/20 19/42/20
f 29/38/21 32/41/21 23/30/21 21/28/21
f 32/41/22 31/40/22 18/43/22 23/30/22
f 27/36/23 24/31/23 17/33/23 28/44/23
f 26/35/24 22/29/24 24/31/24 27/36/24
f 25/45/25 20/27/25 22/29/25 26/35/25
f 28/46/26 17/24/26 20/27/26 25/45/26
f 33/47/27 34/48/27 35/49/27 36/50/27
f 36/50/28 35/49/28 37/51/28 38/52/28
f 38/52/29 37/51/29 39/53/29 40/54/29
f 40/54/30 39/53/30 34/55/30 33/56/30
f 41/57/5 42/58/5 43/59/5 44/60/5
f 45/61/6 46/62/6 47/63/6 48/64/6
f 47/63/31 46/62/31 35/65/31 34/66/31
f 46/62/32 45/61/32 37/51/32 35/65/32
f 45/61/33 48/64/33 39/53/33 37/51/33
f 48/64/34 47/63/34 34/66/34 39/53/34
f 43/59/35 40/54/35 33/56/35 44/67/35
f 42/58/36 38/52/36 40/54/36 43/59/36
f 41/68/37 36/50/37 38/52/37 42/58/37
f 44/69/38 33/47/38 36/50/38 41/68/38
f 49/70/39 50/71/39 51/72/39 52/73/39
f 52/73/40 51/72/40 53/74/40 54/75/40
f 54/75/41 53/74/41 55/76/41 56/77/41
f 56/77/42 55/76/42 50/78/42 49/79/42
f 57/80/5 58/81/5 59/82/5 60/83/5
f 61/84/6 62/85/6 63/86/6 64/87/6
f 63/86/43 62/85/43 51/88/43 50/89/43
f 62/85/44 61/84/44 53/74/44 51/88/44
f 61/84/45 64/87/45 55/76/45 53/74/45
f 64/87/46 63/86/46 50/89/46 55/76/46
f 59/82/47 56/77/47 49/79/47 60/90/47
f 58/81/48 54/75/48 56/77/48 59/82/48
f 57/91/49 52/73/49 54/75/49 58/81/49
f 60/92/50 49/70/50 52/73/50 57/91/50
usemtl Rope
f 65/93/51 68/94/51 67/95/51 66/96/51
f 69/97/52 65/98/52 66/99/52 70/100/52
f 71/101/53 70/102/53 66/103/53 67/104/53
f 72/105/54 73/106/54 70/102/54 71/101/54
f 68/107/55 65/108/55 69/109/55 74/110/55
f 75/111/52 69/97/52 70/100/52 73/112/52
f 68/94/56 74/113/56 71/114/56 67/95/56
f 74/113/56 76/115/56 72/116/56 71/114/56
f 74/110/57 69/109/57 75/117/57 76/118/57
f 77/119/58 80/120/58 79/121/58 78/122/58
f 81/123/59 77/124/59 78/125/59 82/126/59
f 83/127/60 82/128/60 78/129/60 79/130/60
f 84/131/61 85/132/61 82/128/61 83/127/61
f 80/133/62 77/134/62 81/135/62 86/136/62
f 87/137/63 81/123/63 82/126/63 85/138/63
f 80/120/64 86/139/64 83/140/64 79/121/64
f 86/139/65 88/141/65 84/142/65 83/140/65
f 86/136/66 81/135/66 87/143/66 88/144/66
f 89/145/64 92/146/64 91/147/64 90/148/64
f 92/146/67 94/149/67 93/150/67 91/147/67
f 89/151/68 95/152/68 94/149/68 92/146/68
f 94/149/59 95/153/59 96/154/59 93/150/59
f 91/147/69 93/150/69 96/155/69 90/156/69
f 97/157/70 98/158/70 95/152/70 89/151/70
f 97/159/64 89/145/64 90/148/64 99/160/64
f 95/153/59 98/161/59 100/162/59 96/154/59
f 90/156/71 96/155/71 100/163/71 99/164/71
f 101/165/58 104/166/58 103/167/58 102/168/58
f 105/169/59 101/170/59 102/171/59 106/172/59
f 107/173/72 106/174/72 102/175/72 103/176/72
f 108/177/73 109/178/73 106/174/73 107/173/73
f 104/179/74 101/180/74 105/181/74 110/182/74
f 111/183/59 105/169/59 106/172/59 109/184/59
f 104/166/64 110/185/64 107/186/64 103/167/64
f 110/185/64 112/187/64 108/188/64 107/186/64
f 110/182/75 105/181/75 111/189/75 112/190/75
f 113/191/64 116/192/64 115/193/64 114/194/64
f 116/192/67 118/195/67 117/196/67 115/193/67
f 113/197/68 119/198/68 118/195/68 116/192/68
f 118/195/59 119/199/59 120/200/59 117/196/59
f 115/193/69 117/196/69 120/201/69 114/202/69
f 121/203/76 122/204/76 119/198/76 113/197/76
f 121/205/64 113/191/64 114/194/64 123/206/64
f 119/199/59 122/207/59 124/208/59 120/200/59
f 114/202/77 120/201/77 124/209/77 123/210/77
f 125/211/51 128/212/51 127/213/51 126/214/51
f 129/215/78 125/216/52 126/217/52 130/218/79
f 131/219/53 130/220/53 126/221/53 127/222/53
f 132/223/80 133/224/80 130/220/80 131/219/80
f 128/225/55 125/226/55 129/227/55 134/228/55
f 135/229/81 129/215/78 130/218/79 133/230/81
f 128/212/56 134/231/82 131/232/83 127/213/56
f 134/231/82 136/233/84 132/234/84 131/232/83
f 134/228/85 129/227/85 135/235/85 136/236/85
f 137/237/56 140/238/56 139/239/56 138/240/56
f 140/238/86 142/241/86 141/242/86 139/239/86
f 137/243/87 143/244/87 142/241/87 140/238/87
f 142/241/52 143/245/52 144/246/52 141/242/52
f 139/239/88 141/242/88 144/247/88 138/248/88
f 145/249/89 146/250/89 143/244/89 137/243/89
f 145/251/90 137/237/90 138/240/90 147/252/90
f 143/245/52 146/253/52 148/254/52 144/246/52
f 138/248/91 144/247/91 148/255/91 147/256/91
f 149/257/56 152/258/56 151/259/56 150/260/56
f 152/258/86 154/261/86 153/262/86 151/259/86
f 149/263/87 155/264/87 154/261/87 152/258/87
f 154/261/52 155/265/52 156/266/52 153/262/52
f 151/259/88 153/262/88 156/267/88 150/268/88
f 157/269/92 158/270/92 155/264/92 149/263/92
f 157/271/56 149/257/56 150/260/56 159/272/56
f 155/265/52 158/273/52 160/274/52 156/266/52
f 150/268/91 156/267/91 160/275/91 159/276/91
