# Blender v2.82 (sub 7) OBJ File: 'construction_small.blend'
# www.blender.org
mtllib tree.mtl
o Cube
v -0.104715 0.014118 -0.153937
v -0.104715 1.493526 -0.153937
v 0.129714 0.014118 0.080492
v 0.129714 1.493526 0.080492
v 0.197549 0.014118 -0.218458
v 0.197549 1.493526 -0.218458
v -0.451954 0.796440 -0.248929
v 0.102696 3.210976 -0.079324
v 0.296117 0.796440 0.499142
v 0.478053 0.796440 -0.485770
vt 0.375000 0.250000
vt 0.625000 0.250000
vt 0.625000 0.500000
vt 0.375000 0.500000
vt 0.625000 0.750000
vt 0.375000 0.750000
vt 0.375000 0.250000
vt 0.625000 0.500000
vt 0.375000 0.500000
vt 0.625000 0.750000
vt 0.375000 0.750000
vt 0.625000 0.250000
vn -0.2088 0.0000 -0.9780
vn 0.9752 0.0000 0.2213
vn -0.7071 0.0000 0.7071
vn -0.2449 0.1238 -0.9616
vn 0.9761 0.1214 0.1803
vn 0.0000 -1.0000 -0.0000
vn -0.7027 0.1121 0.7027
usemtl Wood
s off
f 1/1/1 2/2/1 6/3/1 5/4/1
f 5/4/2 6/3/2 4/5/2 3/6/2
f 3/6/3 4/5/3 2/2/3 1/1/3
usemtl Leaves
f 7/7/4 8/8/4 10/9/4
f 10/9/5 8/10/5 9/11/5
f 7/7/6 10/9/6 9/11/6
f 9/11/7 8/12/7 7/7/7
