# Blender v2.82 (sub 7) OBJ File: 'defaultUnit.blend'
# www.blender.org
mtllib unitSoldier.mtl
o Cube_Cube.001
v -0.079619 1.688794 -0.192219
v -0.182198 1.734197 -0.075469
v -0.195774 1.740207 -0.000000
v -0.142422 1.716591 0.142422
v -0.041378 1.671868 0.208023
v -0.142422 1.716591 -0.142423
v 0.197341 1.566205 -0.131859
v -0.041378 1.671867 -0.208024
v -0.182198 1.734197 0.075469
v 0.236879 1.548704 0.047118
v 0.000000 1.653552 -0.216474
v -0.165446 1.726783 -0.110548
v 0.127772 1.596997 -0.191225
v -0.192366 1.738698 0.038264
v -0.165447 1.726783 0.110548
v 0.165439 1.580325 -0.165439
v 0.165439 1.580325 0.165439
v 0.221648 1.555446 -0.091810
v 0.197341 1.566205 0.131859
v -0.192366 1.738698 -0.038264
v 0.127772 1.596997 0.191224
v -0.113594 1.703832 0.170005
v -0.000000 1.653552 0.216474
v 0.242069 1.546407 -0.000000
v 0.043122 1.634466 -0.216786
v 0.236879 1.548704 -0.047118
v -0.113594 1.703831 -0.170006
v 0.221648 1.555446 0.091809
v -0.079619 1.688794 0.192218
v 0.086334 1.615339 -0.208430
v 0.086334 1.615339 0.208429
v -0.080366 2.155141 0.053699
v 0.043122 1.634466 0.216786
v -0.080213 2.155914 -0.053597
v 0.000000 2.193654 -0.087456
v 0.016749 2.200366 0.084203
v 0.066587 2.224518 -0.044492
v -0.067331 2.161149 0.067331
v -0.034965 2.177279 -0.084413
v 0.077446 2.229206 0.015405
v 0.073393 2.227212 0.030400
v -0.017442 2.185497 -0.087687
v 0.016699 2.201441 -0.083951
v -0.051956 2.168272 0.077758
v 0.066693 2.223986 0.044562
v 0.057344 2.220279 -0.057344
v 0.032190 2.207631 0.077714
v 0.045764 2.214935 -0.068490
v -0.035070 2.176126 0.084667
v -0.090300 2.150601 0.037403
v 0.077404 2.229387 -0.015397
v -0.017497 2.184324 0.087961
v 0.000000 2.192509 0.087729
v -0.098611 2.146958 -0.000000
v -0.096450 2.148095 -0.019185
v 0.057461 2.219584 0.057461
v -0.096516 2.147813 0.019198
v 0.032101 2.208603 -0.077500
v -0.051813 2.169354 -0.077544
v -0.067170 2.162103 -0.067170
v 0.078789 2.229935 -0.000000
v 0.045876 2.214092 0.068658
v -0.090180 2.151146 -0.037354
v 0.073313 2.227572 -0.030368
v -0.089887 0.026178 -0.451897
v -0.079619 1.546001 -0.192219
v -0.176321 0.026178 -0.425678
v -0.182198 1.611234 -0.075469
v -0.255978 0.026178 -0.383100
v -0.195774 1.619867 -0.000000
v -0.325799 0.026178 -0.325800
v -0.142422 1.585939 0.142422
v -0.383099 0.026178 -0.255980
v -0.041378 1.521683 0.208023
v -0.425677 0.026178 -0.176322
v -0.142422 1.585939 -0.142423
v -0.451897 0.026178 -0.089889
v 0.197341 1.369875 -0.131859
v -0.460750 0.026178 -0.000001
v -0.041378 1.521683 -0.208024
v -0.451897 0.026178 0.089887
v -0.182198 1.611234 0.075469
v -0.425678 0.026178 0.176321
v 0.236879 1.344731 0.047118
v -0.383100 0.026178 0.255979
v 0.000000 1.495369 -0.216474
v -0.325800 0.026178 0.325799
v -0.165446 1.600581 -0.110548
v -0.255979 0.026178 0.383099
v 0.127772 1.414116 -0.191225
v -0.176322 0.026178 0.425677
v -0.192366 1.617700 0.038264
v -0.089888 0.026178 0.451897
v -0.165447 1.600581 0.110548
v -0.000000 0.026178 0.460750
v 0.165439 1.390162 -0.165439
v 0.089888 0.026178 0.451897
v 0.165439 1.390162 0.165439
v 0.176321 0.026178 0.425677
v 0.221648 1.354418 -0.091810
v 0.255979 0.026178 0.383100
v 0.197341 1.369875 0.131859
v 0.325800 0.026178 0.325799
v -0.192366 1.617700 -0.038264
v 0.383100 0.026178 0.255979
v 0.127772 1.414116 0.191224
v 0.425678 0.026178 0.176321
v -0.113594 1.567607 0.170005
v 0.451897 0.026178 0.089888
v -0.000000 1.495369 0.216474
v 0.460750 0.026178 -0.000000
v 0.242069 1.341432 -0.000000
v 0.451897 0.026178 -0.089888
v 0.043122 1.467947 -0.216786
v 0.425678 0.026178 -0.176322
v 0.236879 1.344732 -0.047118
v 0.383100 0.026178 -0.255979
v 0.325800 0.026178 -0.325800
v -0.113594 1.567606 -0.170006
v 0.255979 0.026178 -0.383100
v 0.221648 1.354418 0.091809
v 0.176322 0.026178 -0.425678
v -0.079619 1.546002 0.192218
v 0.089888 0.026178 -0.451897
v 0.086334 1.440467 -0.208430
v 0.000000 0.026178 -0.460750
v 0.086334 1.440467 0.208429
v 0.043122 1.467947 0.216786
v -0.216666 2.144159 0.043466
v -0.234777 2.273633 0.130278
v -0.291229 2.216002 -0.123085
v -0.316684 2.389981 0.010443
v -0.005802 2.167896 -0.005995
v -0.052910 2.352950 0.070159
v -0.094572 2.293958 -0.117851
v -0.097455 2.363032 -0.040697
v -0.358262 2.011245 -0.031131
v -0.390960 2.096262 0.038315
v -0.405510 2.111042 -0.062837
v -0.455326 2.127228 -0.011754
v -0.475961 1.895322 -0.031782
v 0.107576 2.100603 0.021398
v 0.189239 1.752047 0.037642
v 0.109684 2.100604 -0.000000
v 0.192946 1.752047 -0.000000
v 0.107576 2.100605 -0.021398
v 0.189239 1.752047 -0.037642
v 0.103905 1.776838 0.155505
v 0.077212 2.102651 0.077212
v 0.133970 1.766631 0.133970
v 0.090918 2.102016 0.060749
v 0.158642 1.761041 0.106001
v 0.091783 2.097660 -0.061328
v 0.157938 1.764587 -0.105531
v 0.103499 1.779898 -0.154897
v 0.077665 2.099969 -0.077665
v 0.133853 1.767325 -0.133853
vt 0.875000 0.500000
vt 0.000000 0.000000
vt 0.000000 0.000000
vt 0.875000 0.750000
vt 0.375000 0.250000
vt 0.625000 0.250000
vt 0.625000 0.500000
vt 0.375000 0.500000
vt 0.625000 0.750000
vt 0.375000 0.750000
vt 0.625000 1.000000
vt 0.375000 1.000000
vt 0.125000 0.500000
vt 0.125000 0.750000
vt 0.000000 0.000000
vt 0.000000 0.000000
vt 0.000000 0.000000
vt 0.294971 0.141431
vt 0.316555 0.150393
vt 0.304123 0.168999
vt 0.273896 0.214237
vt 0.266768 0.209519
vt 0.336176 0.163824
vt 0.319784 0.180216
vt 0.250000 0.137241
vt 0.272462 0.137078
vt 0.258724 0.206140
vt 0.250000 0.204303
vt 0.250000 0.362759
vt 0.228447 0.358357
vt 0.240915 0.295675
vt 0.250000 0.295555
vt 0.294971 0.358569
vt 0.272462 0.362922
vt 0.258698 0.293729
vt 0.266721 0.290369
vt 0.208527 0.350125
vt 0.190830 0.338554
vt 0.223011 0.290392
vt 0.231787 0.293970
vt 0.365454 0.202177
vt 0.373388 0.225457
vt 0.348572 0.230393
vt 0.306035 0.238854
vt 0.290341 0.241976
vt 0.288230 0.234165
vt 0.175814 0.324186
vt 0.163821 0.307583
vt 0.208218 0.277918
vt 0.215012 0.284988
vt 0.155095 0.289311
vt 0.149798 0.269931
vt 0.199760 0.259993
vt 0.203026 0.269457
vt 0.316555 0.349607
vt 0.273838 0.285676
vt 0.303912 0.330684
vt 0.155095 0.210689
vt 0.163820 0.192417
vt 0.208138 0.222029
vt 0.202963 0.230517
vt 0.365454 0.297823
vt 0.352793 0.318684
vt 0.332268 0.304970
vt 0.297809 0.281945
vt 0.284684 0.273175
vt 0.288188 0.265818
vt 0.336176 0.336176
vt 0.319723 0.319723
vt 0.175814 0.175814
vt 0.190830 0.161446
vt 0.222936 0.209496
vt 0.214928 0.214928
vt 0.148023 0.250000
vt 0.149798 0.230069
vt 0.199726 0.240000
vt 0.198635 0.250000
vt 0.352793 0.181316
vt 0.284739 0.226788
vt 0.297358 0.218356
vt 0.332635 0.194785
vt 0.279870 0.279870
vt 0.231732 0.205898
vt 0.240886 0.204182
vt 0.279931 0.220069
vt 0.291041 0.250000
vt 0.290319 0.258020
vt 0.376091 0.250000
vt 0.373388 0.274543
vt 0.348572 0.269607
vt 0.350504 0.250000
vt 0.208527 0.149875
vt 0.228446 0.141643
vt 0.306035 0.261146
vt 0.250000 0.137241
vt 0.272462 0.137078
vt 0.294971 0.141431
vt 0.316555 0.150393
vt 0.336176 0.163824
vt 0.352793 0.181316
vt 0.365454 0.202177
vt 0.373388 0.225457
vt 0.376091 0.250000
vt 0.373388 0.274543
vt 0.365454 0.297823
vt 0.352793 0.318684
vt 0.336176 0.336176
vt 0.316555 0.349607
vt 0.294971 0.358569
vt 0.272462 0.362922
vt 0.250000 0.362759
vt 0.228447 0.358357
vt 0.208527 0.350125
vt 0.190830 0.338554
vt 0.175814 0.324186
vt 0.163821 0.307583
vt 0.155095 0.289311
vt 0.149798 0.269931
vt 0.148023 0.250000
vt 0.149798 0.230069
vt 0.155095 0.210689
vt 0.163820 0.192417
vt 0.175814 0.175814
vt 0.190830 0.161446
vt 0.208527 0.149875
vt 0.228446 0.141643
vt 0.158156 0.028269
vt 0.116663 0.050447
vt 0.080294 0.080294
vt 0.050447 0.116663
vt 0.341844 0.471731
vt 0.383337 0.449553
vt 0.419706 0.419706
vt 0.296822 0.485388
vt 0.250000 0.010000
vt 0.203178 0.014612
vt 0.250000 0.490000
vt 0.296822 0.014612
vt 0.383337 0.050447
vt 0.341844 0.028269
vt 0.490000 0.250000
vt 0.485388 0.203178
vt 0.449553 0.383337
vt 0.485388 0.296822
vt 0.449553 0.116663
vt 0.419706 0.080294
vt 0.471731 0.158156
vt 0.471731 0.341844
vt 0.028269 0.158156
vt 0.014611 0.203179
vt 0.010000 0.250000
vt 0.014612 0.296822
vt 0.028269 0.341844
vt 0.050447 0.383337
vt 0.080295 0.419706
vt 0.116663 0.449553
vt 0.158156 0.471731
vt 0.203179 0.485389
vt 0.919706 0.419706
vt 0.949553 0.383337
vt 0.971731 0.341844
vt 0.985388 0.296822
vt 0.990000 0.250000
vt 0.985388 0.203178
vt 0.971731 0.158156
vt 0.949553 0.116663
vt 0.919706 0.080294
vt 0.883337 0.050447
vt 0.841844 0.028269
vt 0.796822 0.014612
vt 0.750000 0.010000
vt 0.703178 0.014612
vt 0.658156 0.028269
vt 0.616663 0.050447
vt 0.580294 0.080294
vt 0.550447 0.116663
vt 0.528269 0.158156
vt 0.514611 0.203179
vt 0.510000 0.250000
vt 0.514612 0.296822
vt 0.528269 0.341844
vt 0.550447 0.383337
vt 0.580295 0.419706
vt 0.616663 0.449553
vt 0.658156 0.471731
vt 0.703179 0.485389
vt 0.750000 0.490000
vt 0.796822 0.485388
vt 0.841844 0.471731
vt 0.883337 0.449553
vt 0.307133 0.250000
vt 0.290219 0.209781
vt 0.290455 0.290455
vn -0.6302 0.2297 0.7417
vn -0.1613 0.6356 -0.7550
vn 0.8811 0.3591 -0.3079
vn 0.3393 -0.3763 0.8621
vn 0.1252 -0.7725 -0.6226
vn 0.0164 0.8806 0.4736
vn 0.1307 -0.5634 0.8158
vn -0.6512 0.3800 -0.6569
vn 0.4919 -0.4856 -0.7226
vn 0.4459 -0.4571 0.7695
vn -0.6178 -0.0129 0.7862
vn -0.6907 0.1230 -0.7126
vn 0.2077 -0.2055 -0.9564
vn 0.4586 0.2313 0.8580
vn 0.6172 0.2313 0.7521
vn 0.0954 0.2313 0.9682
vn -0.0954 0.2313 -0.9682
vn 0.2824 0.2313 -0.9310
vn -0.4586 0.2313 -0.8580
vn 0.9310 0.2313 0.2824
vn -0.7521 0.2313 -0.6172
vn -0.9310 0.2313 -0.2824
vn 0.4586 0.2313 -0.8580
vn -0.8580 0.2313 0.4586
vn 0.8580 0.2313 -0.4586
vn 0.7521 0.2313 -0.6172
vn -0.6172 0.2313 0.7521
vn 0.0954 0.2313 -0.9682
vn -0.9682 0.2313 0.0954
vn 0.8580 0.2313 0.4586
vn -0.4237 0.9058 0.0059
vn 0.9682 0.2313 -0.0954
vn -0.2824 0.2313 0.9310
vn -0.4586 0.2313 0.8580
vn -0.9310 0.2313 0.2824
vn 0.7521 0.2313 0.6172
vn 0.9682 0.2313 0.0954
vn 0.6172 0.2313 -0.7521
vn -0.2824 0.2313 -0.9310
vn -0.6172 0.2313 -0.7521
vn -0.8580 0.2313 -0.4586
vn -0.9682 0.2313 -0.0954
vn -0.7521 0.2313 0.6172
vn 0.9310 0.2313 -0.2824
vn 0.2824 0.2313 0.9310
vn -0.0954 0.2313 0.9682
vn -0.4047 -0.9144 -0.0000
vn 0.5366 0.8438 -0.0000
vn -0.4651 0.1632 0.8701
vn -0.7626 0.1632 0.6259
vn 0.4651 0.1632 -0.8701
vn 0.6259 0.1632 -0.7626
vn 0.2864 0.1632 -0.9441
vn -0.0967 0.1632 0.9818
vn 0.0967 0.1632 -0.9818
vn -0.2864 0.1632 0.9441
vn 0.0967 0.1632 0.9818
vn -0.6259 0.1632 0.7626
vn 0.4651 0.1632 0.8701
vn 0.9818 0.1632 0.0967
vn 0.7626 0.1632 -0.6259
vn 0.9818 0.1632 -0.0967
vn 0.2864 0.1632 0.9441
vn 0.7626 0.1632 0.6259
vn 0.9441 0.1632 0.2864
vn 0.9441 0.1632 -0.2864
vn 0.8701 0.1632 -0.4651
vn 0.8701 0.1632 0.4651
vn 0.6259 0.1632 0.7626
vn -0.8701 0.1632 0.4651
vn -0.9441 0.1632 0.2864
vn -0.9818 0.1632 0.0967
vn -0.9818 0.1632 -0.0967
vn -0.9441 0.1632 -0.2864
vn -0.8701 0.1632 -0.4651
vn -0.7626 0.1632 -0.6259
vn -0.6259 0.1632 -0.7626
vn -0.4651 0.1632 -0.8701
vn -0.2864 0.1632 -0.9441
vn -0.0967 0.1632 -0.9818
vn 0.0000 -1.0000 -0.0000
usemtl Plume
s off
f 132/1/1 140/2/1 138/3/1 130/4/1
f 131/5/2 132/6/2 136/7/2 135/8/2
f 135/8/3 136/7/3 134/9/3 133/10/3
f 133/10/4 134/9/4 130/11/4 129/12/4
f 131/13/5 135/8/5 133/10/5 129/14/5
f 136/7/6 132/1/6 130/4/6 134/9/6
f 138/3/7 137/15/7 129/12/7 130/4/7
f 139/16/8 140/2/8 132/6/8 131/5/8
f 131/5/9 129/12/9 137/15/9 139/16/9
f 138/3/10 141/17/10 137/15/10
f 140/2/11 141/17/11 138/3/11
f 140/2/12 139/16/12 141/17/12
f 139/16/13 137/15/13 141/17/13
usemtl Armour
f 31/18/14 21/19/14 148/20/14 62/21/14 47/22/14
f 21/19/15 17/23/15 150/24/15 148/20/15
f 23/25/16 33/26/16 36/27/16 53/28/16
f 11/29/17 8/30/17 42/31/17 35/32/17
f 30/33/18 25/34/18 43/35/18 58/36/18
f 1/37/19 27/38/19 59/39/19 39/40/19
f 28/41/20 10/42/20 143/43/20 142/44/20 40/45/20 41/46/20
f 6/47/21 12/48/21 34/49/21 60/50/21
f 2/51/22 20/52/22 55/53/22 63/54/22
f 13/55/23 30/33/23 58/36/23 48/56/23 155/57/23
f 9/58/24 15/59/24 32/60/24 50/61/24
f 18/62/25 7/63/25 154/64/25 153/65/25 37/66/25 64/67/25
f 7/63/26 16/68/26 157/69/26 154/64/26
f 4/70/27 22/71/27 44/72/27 38/73/27
f 25/34/28 11/29/28 35/32/28 43/35/28
f 3/74/29 14/75/29 57/76/29 54/77/29
f 19/78/30 28/41/30 41/46/30 45/79/30 151/80/30 152/81/30
f 46/82/31 48/56/31 58/36/31 43/35/31 35/32/31 42/31/31 39/40/31 59/39/31 60/50/31 34/49/31 63/54/31 55/53/31 54/77/31 57/76/31 50/61/31 32/60/31 38/73/31 44/72/31 49/83/31 52/84/31 53/28/31 36/27/31 47/22/31 62/21/31 56/85/31 45/79/31 41/46/31 40/45/31 61/86/31 51/87/31 64/67/31 37/66/31
f 24/88/32 26/89/32 147/90/32 145/91/32
f 29/92/33 5/93/33 52/84/33 49/83/33
f 22/71/34 29/92/34 49/83/34 44/72/34
f 14/75/35 9/58/35 50/61/35 57/76/35
f 17/23/36 19/78/36 152/81/36 150/24/36
f 10/42/37 24/88/37 145/91/37 143/43/37
f 16/68/38 13/55/38 155/57/38 157/69/38
f 8/30/39 1/37/39 39/40/39 42/31/39
f 27/38/40 6/47/40 60/50/40 59/39/40
f 12/48/41 2/51/41 63/54/41 34/49/41
f 20/52/42 3/74/42 54/77/42 55/53/42
f 15/59/43 4/70/43 38/73/43 32/60/43
f 26/89/44 18/62/44 64/67/44 51/87/44 146/94/44 147/90/44
f 33/26/45 31/18/45 47/22/45 36/27/45
f 5/93/46 23/25/46 53/28/46 52/84/46
f 23/25/47 5/93/47 29/92/47 22/71/47 4/70/47 15/59/47 9/58/47 14/75/47 3/74/47 20/52/47 2/51/47 12/48/47 6/47/47 27/38/47 1/37/47 8/30/47 11/29/47 25/34/47 30/33/47 13/55/47 16/68/47 7/63/47 18/62/47 26/89/47 24/88/47 10/42/47 28/41/47 19/78/47 17/23/47 21/19/47 31/18/47 33/26/47
f 110/95/48 128/96/48 127/97/48 106/98/48 98/99/48 102/100/48 121/101/48 84/102/48 112/103/48 116/104/48 100/105/48 78/106/48 96/107/48 90/108/48 125/109/48 114/110/48 86/111/48 80/112/48 66/113/48 119/114/48 76/115/48 88/116/48 68/117/48 104/118/48 70/119/48 92/120/48 82/121/48 94/122/48 72/123/48 108/124/48 123/125/48 74/126/48
f 91/127/49 123/125/49 108/124/49 89/128/49
f 87/129/50 72/123/50 94/122/50 85/130/50
f 122/131/51 125/109/51 90/108/51 120/132/51
f 120/132/52 90/108/52 96/107/52 118/133/52
f 124/134/53 114/110/53 125/109/53 122/131/53
f 95/135/54 110/95/54 74/126/54 93/136/54
f 126/137/55 86/111/55 114/110/55 124/134/55
f 93/136/56 74/126/56 123/125/56 91/127/56
f 97/138/57 128/96/57 110/95/57 95/135/57
f 89/128/58 108/124/58 72/123/58 87/129/58
f 101/139/59 106/98/59 127/97/59 99/140/59
f 111/141/60 112/103/60 84/102/60 109/142/60
f 118/133/61 96/107/61 78/106/61 117/143/61
f 113/144/62 116/104/62 112/103/62 111/141/62
f 99/140/63 127/97/63 128/96/63 97/138/63
f 105/145/64 102/100/64 98/99/64 103/146/64
f 109/142/65 84/102/65 121/101/65 107/147/65
f 115/148/66 100/105/66 116/104/66 113/144/66
f 117/143/67 78/106/67 100/105/67 115/148/67
f 107/147/68 121/101/68 102/100/68 105/145/68
f 103/146/69 98/99/69 106/98/69 101/139/69
f 85/130/70 94/122/70 82/121/70 83/149/70
f 83/149/71 82/121/71 92/120/71 81/150/71
f 81/150/72 92/120/72 70/119/72 79/151/72
f 79/151/73 70/119/73 104/118/73 77/152/73
f 77/152/74 104/118/74 68/117/74 75/153/74
f 75/153/75 68/117/75 88/116/75 73/154/75
f 73/154/76 88/116/76 76/115/76 71/155/76
f 71/155/77 76/115/77 119/114/77 69/156/77
f 69/156/78 119/114/78 66/113/78 67/157/78
f 67/157/79 66/113/79 80/112/79 65/158/79
f 65/158/80 80/112/80 86/111/80 126/137/80
f 118/159/81 117/160/81 115/161/81 113/162/81 111/163/81 109/164/81 107/165/81 105/166/81 103/167/81 101/168/81 99/169/81 97/170/81 95/171/81 93/172/81 91/173/81 89/174/81 87/175/81 85/176/81 83/177/81 81/178/81 79/179/81 77/180/81 75/181/81 73/182/81 71/183/81 69/184/81 67/185/81 65/186/81 126/187/81 124/188/81 122/189/81 120/190/81
f 142/44/37 144/191/37 61/86/37 40/45/37
f 144/191/32 146/94/32 51/87/32 61/86/32
f 149/192/15 56/85/15 62/21/15 148/20/15
f 149/192/36 151/80/36 45/79/36 56/85/36
f 153/65/26 156/193/26 46/82/26 37/66/26
f 156/193/38 155/57/38 48/56/38 46/82/38
usemtl Black
f 143/43/37 145/91/37 144/191/37 142/44/37
f 145/91/32 147/90/32 146/94/32 144/191/32
f 148/20/15 150/24/15 149/192/15
f 150/24/36 152/81/36 151/80/36 149/192/36
f 154/64/26 157/69/26 156/193/26 153/65/26
f 157/69/38 155/57/38 156/193/38
