# Blender v2.82 (sub 7) OBJ File: 'TallWall.blend'
# www.blender.org
mtllib Wall.mtl
o TallWallBricks_Cube.001
v 0.565048 1.628018 -0.359831
v 0.565048 0.002850 -0.359831
v 0.565048 1.628018 -0.459446
v 0.565048 0.002850 -0.459445
v 0.565048 1.855158 -0.359831
v -0.405218 0.002850 0.000956
v -0.405218 0.002850 -0.359831
v -0.407204 0.002850 -0.459446
v -0.405218 1.628018 -0.459446
v -0.109222 0.134298 -0.459446
v 0.043057 0.134298 -0.459446
v 0.324724 0.169214 -0.459446
v 0.477003 0.169214 -0.459446
v 0.477003 0.254806 -0.459446
v 0.324724 0.254806 -0.459446
v 0.307415 0.531848 -0.459446
v 0.307415 0.617441 -0.459446
v 0.155136 0.617441 -0.459446
v 0.155136 0.531848 -0.459446
v 0.043057 0.219891 -0.459446
v -0.109222 0.219891 -0.459446
v -0.186384 0.506909 -0.459446
v -0.186384 0.592501 -0.459446
v -0.338663 0.592501 -0.459446
v -0.338663 0.506909 -0.459446
v 0.565048 1.855158 -0.506969
v 0.565048 1.628018 -0.506969
v 0.484291 1.855158 -0.359831
v 0.323025 1.855158 -0.359831
v 0.161758 1.855158 -0.359831
v 0.000492 1.855158 -0.359831
v -0.160775 1.855158 -0.359831
v -0.322042 1.855158 -0.359831
v -0.405218 1.855158 -0.359832
v -0.405218 1.628018 -0.359832
v -0.405218 1.628018 -0.506970
v -0.405218 1.855158 -0.506970
v -0.322042 1.855158 -0.506970
v -0.160775 1.855158 -0.506970
v 0.000492 1.855158 -0.506970
v 0.161758 1.855158 -0.506970
v 0.323025 1.855158 -0.506970
v 0.484291 1.855158 -0.506970
v 0.564925 1.996062 -0.506969
v 0.564925 1.996062 -0.359831
v 0.484291 1.996062 -0.359831
v 0.323025 1.996062 -0.359831
v 0.161758 1.996062 -0.359831
v 0.000492 1.996062 -0.359831
v -0.160775 1.996062 -0.359831
v -0.322763 1.996062 -0.359831
v -0.404118 1.996062 -0.359832
v -0.404118 1.996062 -0.506970
v -0.322763 1.996062 -0.506970
v -0.160775 1.996062 -0.506970
v 0.000492 1.996062 -0.506970
v 0.161758 1.996062 -0.506970
v 0.323025 1.996062 -0.506970
v 0.484291 1.996062 -0.506970
v 0.324935 0.254806 -0.473668
v 0.324935 0.169214 -0.473668
v 0.477181 0.254806 -0.471408
v 0.477181 0.169214 -0.471408
v -0.109010 0.219891 -0.473668
v -0.109010 0.134298 -0.473668
v 0.043235 0.219891 -0.471407
v 0.043235 0.134298 -0.471407
v -0.338453 0.592501 -0.473668
v -0.338453 0.506909 -0.473668
v -0.186207 0.592501 -0.471408
v -0.186207 0.506909 -0.471408
v 0.155347 0.617441 -0.473668
v 0.155347 0.531848 -0.473668
v 0.307593 0.617441 -0.471408
v 0.307593 0.531848 -0.471408
v -0.407111 1.628018 0.364114
v -0.407111 1.628018 0.003327
v -0.407111 0.002850 0.364114
v -0.407111 1.628018 0.463729
v -0.407111 0.002850 0.463729
v -0.407111 1.855158 0.364114
v -0.407111 1.855158 0.003327
v 0.563155 1.628018 0.003327
v 0.563155 0.002850 0.003327
v 0.563155 0.002850 0.364115
v 0.565140 0.002850 0.463730
v 0.563155 1.628018 0.463730
v 0.267158 0.134298 0.463730
v 0.114879 0.134298 0.463730
v -0.166787 0.169214 0.463730
v -0.319067 0.169214 0.463730
v -0.319067 0.254806 0.463730
v -0.166787 0.254806 0.463730
v -0.149478 0.531848 0.463730
v -0.149478 0.617441 0.463730
v 0.002801 0.617441 0.463730
v 0.002801 0.531848 0.463730
v 0.114879 0.219891 0.463730
v 0.267158 0.219891 0.463730
v 0.344321 0.506909 0.463730
v 0.344321 0.592501 0.463730
v 0.496600 0.592501 0.463730
v 0.496600 0.506909 0.463730
v -0.407111 1.855158 0.511252
v -0.407111 1.628018 0.511252
v -0.326355 1.855158 0.364114
v -0.165088 1.855158 0.364114
v -0.003821 1.855158 0.364114
v 0.157445 1.855158 0.364114
v 0.318712 1.855158 0.364114
v 0.479979 1.855158 0.364114
v 0.563155 1.855158 0.364115
v 0.563155 1.855158 0.003327
v 0.563155 1.628018 0.364115
v 0.563155 1.628018 0.511253
v 0.563155 1.855158 0.511253
v 0.479979 1.855158 0.511253
v 0.318712 1.855158 0.511253
v 0.157445 1.855158 0.511253
v -0.003821 1.855158 0.511253
v -0.165088 1.855158 0.511253
v -0.326355 1.855158 0.511253
v -0.406989 1.996062 0.511252
v -0.406989 1.996062 0.364114
v -0.326355 1.996062 0.364114
v -0.165088 1.996062 0.364114
v -0.003821 1.996062 0.364114
v 0.157445 1.996062 0.364114
v 0.318712 1.996062 0.364114
v 0.480700 1.996062 0.364115
v 0.562055 1.996062 0.364115
v 0.562055 1.996062 0.511253
v 0.480700 1.996062 0.511253
v 0.318712 1.996062 0.511253
v 0.157445 1.996062 0.511253
v -0.003821 1.996062 0.511253
v -0.165088 1.996062 0.511253
v -0.326355 1.996062 0.511253
v -0.166998 0.254806 0.477951
v -0.166998 0.169214 0.477951
v -0.319244 0.254806 0.475691
v -0.319244 0.169214 0.475691
v 0.266947 0.219891 0.477951
v 0.266947 0.134298 0.477951
v 0.114701 0.219891 0.475691
v 0.114701 0.134298 0.475691
v 0.496389 0.592501 0.477951
v 0.496389 0.506909 0.477951
v 0.344143 0.592501 0.475691
v 0.344143 0.506909 0.475691
v 0.002589 0.617441 0.477951
v 0.002589 0.531848 0.477951
v -0.149656 0.617441 0.475691
v -0.149656 0.531848 0.475691
vn 1.0000 0.0000 0.0026
vn 1.0000 0.0000 0.0052
vn 1.0000 0.0000 -0.0000
vn 1.0000 0.0003 0.0017
vn -0.0012 -0.0007 1.0000
vn -0.0000 -1.0000 0.0000
vn 0.0000 -0.0000 -1.0000
vn 1.0000 0.0004 -0.0000
vn -1.0000 -0.0003 -0.0039
vn -1.0000 0.0000 0.0005
vn -1.0000 0.0000 0.0037
vn -1.0000 -0.0006 -0.0026
vn -1.0000 0.0005 0.0086
vn -1.0000 0.0006 0.0100
vn 1.0000 0.0009 -0.0000
vn 0.0000 0.0000 1.0000
vn 0.0000 1.0000 0.0000
vn -1.0000 0.0000 -0.0052
vn -1.0000 0.0026 -0.0017
vn -1.0000 0.0039 0.0000
vn -1.0000 0.0000 0.0000
vn 1.0000 0.0051 -0.0000
vn -1.0000 0.0078 0.0000
vn -0.9999 0.0000 -0.0149
vn 0.0148 -0.0000 -0.9999
vn 0.9999 0.0000 0.0148
vn 0.9999 0.0000 0.0149
vn -0.9999 0.0000 -0.0148
vn -1.0000 -0.0001 -0.0007
vn -1.0000 -0.0003 -0.0013
vn -1.0000 0.0003 -0.0000
vn -1.0000 0.0004 -0.0000
vn 1.0000 0.0002 -0.0025
vn 1.0000 0.0003 -0.0050
vn 1.0000 0.0005 -0.0086
vn 1.0000 0.0006 -0.0100
vn -1.0000 0.0009 -0.0000
vn 1.0000 0.0026 -0.0000
vn 1.0000 0.0039 0.0000
vn -1.0000 0.0051 0.0000
vn 1.0000 0.0078 0.0000
vn -0.0148 0.0000 0.9999
usemtl LightRock
s 1
f 1//1 83//2 84//2 2//1
f 3//3 1//1 2//1 4//3
f 5//4 113//2 83//2 1//1
f 77//5 6//5 84//5 83//5
f 6//6 7//6 2//6 84//6
f 4//7 13//7 14//7 15//7 16//7 17//7 18//7 9//7 3//7
f 9//7 18//7 19//7 16//7 15//7 12//7 11//7 20//7 21//7 22//7 23//7 24//7
f 26//8 5//4 1//1 3//3 27//3
f 7//6 8//6 4//6 2//6
f 77//9 35//10 7//11 6//12
f 3//6 9//6 36//6 27//6
f 9//13 8//14 7//11 35//10
f 5//4 26//8 44//15 45//15
f 28//16 5//16 45//16 46//16
f 29//17 28//17 43//17 42//17
f 30//16 29//16 47//16 48//16
f 31//17 30//17 41//17 40//17
f 32//16 31//16 49//16 50//16
f 33//17 32//17 39//17 38//17
f 82//18 34//19 35//10 77//9
f 34//19 37//20 36//21 9//13 35//10
f 40//7 39//7 55//7 56//7
f 42//7 41//7 57//7 58//7
f 26//7 43//7 59//7 44//7
f 45//17 44//17 59//17 46//17
f 28//21 46//21 59//21 43//21
f 29//3 42//3 58//3 47//3
f 30//21 48//21 57//21 41//21
f 48//17 47//17 58//17 57//17
f 31//3 40//3 56//3 49//3
f 32//21 50//21 55//21 39//21
f 50//17 49//17 56//17 55//17
f 33//22 38//22 54//22 51//22
f 37//20 34//19 52//23 53//23
f 52//17 51//17 54//17 53//17
f 113//17 5//17 34//17 82//17
f 51//16 52//16 34//16 33//16
f 26//7 27//7 36//7 37//7
f 53//7 54//7 38//7 37//7
f 13//7 4//7 8//7 10//7 11//7 12//7
f 22//7 10//7 8//7 25//7
f 8//7 9//7 24//7 25//7
f 21//7 10//7 22//7
usemtl DarkRock
f 15//24 60//24 61//24 12//24
f 14//17 62//17 60//17 15//17
f 60//25 62//25 63//25 61//25
f 12//6 61//6 63//6 13//6
f 13//26 63//26 62//26 14//26
f 21//24 64//24 65//24 10//24
f 20//17 66//17 64//17 21//17
f 64//25 66//25 67//25 65//25
f 10//6 65//6 67//6 11//6
f 11//27 67//27 66//27 20//27
f 24//28 68//28 69//28 25//28
f 23//17 70//17 68//17 24//17
f 68//25 70//25 71//25 69//25
f 25//6 69//6 71//6 22//6
f 22//26 71//26 70//26 23//26
f 18//24 72//24 73//24 19//24
f 17//17 74//17 72//17 18//17
f 72//25 74//25 75//25 73//25
f 19//6 73//6 75//6 16//6
f 16//27 75//27 74//27 17//27
usemtl LightRock
f 76//29 77//30 6//12 78//30
f 79//21 76//29 78//30 80//21
f 81//31 82//21 77//30 76//29
f 84//6 85//6 78//6 6//6
f 80//16 91//16 92//16 93//16 94//16 95//16 96//16 87//16 79//16
f 87//16 96//16 97//16 94//16 93//16 90//16 89//16 98//16 99//16 100//16 101//16 102//16
f 104//32 81//31 76//29 79//21 105//21
f 85//6 86//6 80//6 78//6
f 82//7 113//7 83//7 77//7
f 83//3 114//33 85//34 84//3
f 79//6 87//6 115//6 105//6
f 87//35 86//36 85//34 114//33
f 81//31 104//32 123//37 124//37
f 106//7 81//7 124//7 125//7
f 107//17 106//17 122//17 121//17
f 108//7 107//7 126//7 127//7
f 109//17 108//17 120//17 119//17
f 110//7 109//7 128//7 129//7
f 111//17 110//17 118//17 117//17
f 113//3 112//38 114//33 83//3
f 112//38 116//39 115//3 87//35 114//33
f 119//16 118//16 134//16 135//16
f 121//16 120//16 136//16 137//16
f 104//16 122//16 138//16 123//16
f 124//17 123//17 138//17 125//17
f 106//3 125//3 138//3 122//3
f 107//21 121//21 137//21 126//21
f 108//3 127//3 136//3 120//3
f 127//17 126//17 137//17 136//17
f 109//21 119//21 135//21 128//21
f 110//3 129//3 134//3 118//3
f 129//17 128//17 135//17 134//17
f 111//40 117//40 133//40 130//40
f 116//39 112//38 131//41 132//41
f 131//17 130//17 133//17 132//17
f 82//17 81//17 112//17 113//17
f 130//7 131//7 112//7 111//7
f 104//16 105//16 115//16 116//16
f 132//16 133//16 117//16 116//16
f 91//16 80//16 86//16 88//16 89//16 90//16
f 100//16 88//16 86//16 103//16
f 86//16 87//16 102//16 103//16
f 99//16 88//16 100//16
usemtl DarkRock
f 93//27 139//27 140//27 90//27
f 92//17 141//17 139//17 93//17
f 139//42 141//42 142//42 140//42
f 90//6 140//6 142//6 91//6
f 91//28 142//28 141//28 92//28
f 99//27 143//27 144//27 88//27
f 98//17 145//17 143//17 99//17
f 143//42 145//42 146//42 144//42
f 88//6 144//6 146//6 89//6
f 89//24 146//24 145//24 98//24
f 102//26 147//26 148//26 103//26
f 101//17 149//17 147//17 102//17
f 147//42 149//42 150//42 148//42
f 103//6 148//6 150//6 100//6
f 100//28 150//28 149//28 101//28
f 96//27 151//27 152//27 97//27
f 95//17 153//17 151//17 96//17
f 151//42 153//42 154//42 152//42
f 97//6 152//6 154//6 94//6
f 94//24 154//24 153//24 95//24
