# Blender v2.82 (sub 7) OBJ File: 'TallWall.blend'
# www.blender.org
mtllib WallCorner.mtl
o SmallSquareTowerBricks_Cube.025
v -0.975582 1.962949 0.915929
v -0.975582 1.962949 0.827501
v -0.975582 1.910248 0.827501
v -0.975582 1.910248 0.667688
v -0.975582 1.962949 0.667688
v -0.975582 1.962949 0.570980
v -0.975582 1.910248 0.570980
v -0.975582 1.910248 0.411166
v -0.975582 1.962949 0.411166
v -0.975582 1.962949 0.314458
v -0.975582 1.910248 0.314458
v -0.975582 1.910248 0.154644
v -0.975582 1.962949 0.154644
v -0.975582 1.962949 0.057936
v -0.975582 1.910248 0.057936
v -0.975582 1.910248 -0.021191
v -0.975582 1.766357 -0.021191
v -0.975582 1.766357 0.995189
v -0.975582 1.910248 0.995189
v -0.975582 1.910248 0.915929
v -1.066589 2.029711 0.915929
v -0.906775 2.029711 0.915929
v -0.906775 1.962949 0.915929
v -1.066589 1.910248 0.915929
v -0.906775 1.962949 0.920506
v -0.805579 1.962949 0.810669
v -0.805579 1.962949 0.163329
v -0.906775 1.962949 0.053492
v -0.906775 1.962949 0.057936
v -0.906775 1.962949 0.154643
v -0.906775 1.962949 0.314457
v -0.906775 1.962949 0.411165
v -0.906775 1.962949 0.570979
v -0.906775 1.962949 0.667688
v -0.906775 1.962949 0.827501
v -0.906775 2.029711 0.827501
v -1.066589 2.029711 0.827501
v -1.066589 1.910248 0.827501
v -1.066589 2.029711 1.075743
v -1.066589 1.910248 1.075743
v -0.906775 2.029711 1.075743
v -0.906775 1.910248 1.075743
v -0.906775 1.910248 0.995189
v -0.906775 1.962949 0.995189
v -0.906775 2.029711 0.667688
v -1.066589 2.029711 0.667688
v -1.066589 1.910248 0.667688
v -0.117976 1.962949 0.995189
v -0.172556 1.962949 0.995189
v -0.172556 1.910248 0.995189
v -0.332368 1.910248 0.995189
v -0.332368 1.962949 0.995189
v -0.429077 1.962949 0.995189
v -0.429077 1.910248 0.995189
v -0.588890 1.910248 0.995189
v -0.588890 1.962949 0.995189
v -0.685597 1.962949 0.995189
v -0.685597 1.910248 0.995189
v -0.845411 1.910248 0.995189
v -0.845411 1.962949 0.995189
v -0.039159 1.766357 0.995189
v -0.039159 1.910248 0.995189
v -0.117976 1.910248 0.995189
v -0.117976 2.029711 1.075743
v -0.117976 2.029711 0.915929
v -0.117976 1.962949 0.915929
v -0.117976 1.910248 1.075743
v -0.172556 2.029711 0.915701
v -0.172556 2.029711 1.075515
v -0.172556 1.910248 1.075514
v -0.172556 1.962949 0.915701
v -0.332368 1.910248 1.075514
v -0.332368 2.029711 1.075515
v -0.332368 2.029711 0.915701
v -0.332368 1.962949 0.915701
v -0.429077 2.029711 0.915701
v -0.429077 2.029711 1.075515
v -0.429077 1.910248 1.075514
v -0.429077 1.962949 0.915701
v -0.588890 1.910248 1.075514
v -0.588890 2.029711 1.075515
v -0.588890 2.029711 0.915701
v -0.588890 1.962949 0.915701
v -0.685597 2.029711 0.915701
v -0.685597 2.029711 1.075515
v -0.685597 1.910248 1.075514
v -0.685597 1.962949 0.915701
v -0.845411 1.910248 1.075514
v -0.845411 2.029711 1.075515
v -0.845411 2.029711 0.915701
v -0.845411 1.962949 0.915701
v -0.039159 1.962949 0.057936
v -0.039159 1.962949 0.154643
v -0.039159 1.910248 0.154643
v -0.039159 1.910248 0.314457
v -0.039159 1.962949 0.314457
v -0.039159 1.962949 0.411165
v -0.039159 1.910248 0.411165
v -0.039159 1.910248 0.570979
v -0.039159 1.962949 0.570979
v -0.039159 1.962949 0.667688
v -0.039159 1.910248 0.667688
v -0.039159 1.910248 0.827501
v -0.039159 1.962949 0.827501
v -0.039159 1.962949 0.915929
v -0.039159 1.910248 0.915929
v -0.039159 1.766357 -0.021192
v -0.039159 1.910248 -0.021192
v -0.039159 1.910248 0.057936
v 0.041838 2.029711 1.075743
v 0.041838 1.910248 1.075743
v 0.041838 2.029711 0.915929
v 0.041838 1.910248 0.915929
v -0.112183 1.962949 0.915929
v -0.209163 1.962949 0.810669
v -0.975582 1.766357 0.995189
v -0.039159 1.766357 0.995189
v -0.039159 1.766357 -0.021192
v 0.041838 2.029711 0.057936
v -0.117976 2.029711 0.057936
v -0.117976 1.962949 0.057936
v -0.112062 1.962949 0.057936
v 0.041838 1.910248 0.057936
v -0.117976 1.962949 0.827501
v -0.117976 1.962949 0.667688
v -0.117976 1.962949 0.570979
v -0.117976 1.962949 0.411165
v -0.117976 1.962949 0.314457
v -0.117976 1.962949 0.154643
v -0.209163 1.962949 0.163329
v -0.117976 2.029711 0.154643
v 0.041838 2.029711 0.154643
v 0.041838 1.910248 0.154643
v 0.041838 1.910248 0.314457
v 0.041838 2.029711 0.314457
v -0.117976 2.029711 0.314457
v -0.117976 2.029711 0.411165
v 0.041838 2.029711 0.411165
v 0.041838 1.910248 0.411165
v 0.041838 1.910248 0.570979
v 0.041838 2.029711 0.570979
v -0.117976 2.029711 0.570979
v -0.117976 2.029711 0.667688
v 0.041838 2.029711 0.667688
v 0.041838 1.910248 0.667688
v 0.041838 1.910248 0.827501
v 0.041838 2.029711 0.827501
v -0.117976 2.029711 0.827501
v -0.906775 1.962949 -0.021192
v -0.845412 1.962949 -0.021192
v -0.845412 1.910248 -0.021192
v -0.685598 1.910248 -0.021192
v -0.685598 1.962949 -0.021192
v -0.588890 1.962949 -0.021192
v -0.588890 1.910248 -0.021192
v -0.429077 1.910248 -0.021192
v -0.429077 1.962949 -0.021192
v -0.332368 1.962949 -0.021192
v -0.332368 1.910248 -0.021192
v -0.172556 1.910248 -0.021192
v -0.172556 1.962949 -0.021192
v -0.117976 1.962949 -0.021192
v -0.117976 1.910248 -0.021192
v -0.906775 1.910248 -0.021192
v -0.117976 1.910248 -0.101880
v 0.041838 1.910248 -0.101880
v -0.975582 1.766357 -0.021191
v -0.973854 1.766620 0.993907
v -0.039143 1.766620 0.993907
v -0.039143 1.766620 -0.020615
v 0.041838 2.029711 -0.101880
v -0.117976 2.029711 -0.101880
v -0.209163 1.889278 0.163329
v -0.209163 1.889278 0.810669
v -0.906775 2.029711 -0.101880
v -0.906775 2.029711 0.057936
v -0.906775 1.910248 -0.101880
v -0.172556 1.962949 0.055709
v -0.332368 1.962949 0.055709
v -0.429077 1.962949 0.055709
v -0.588890 1.962949 0.055709
v -0.685598 1.962949 0.055709
v -0.845412 1.962949 0.055709
v -0.845412 2.029711 0.055709
v -0.845412 2.029711 -0.104105
v -0.845412 1.910248 -0.104105
v -0.685598 1.910248 -0.104105
v -0.685598 2.029711 -0.104105
v -0.685598 2.029711 0.055709
v -0.588890 2.029711 0.055709
v -0.588890 2.029711 -0.104105
v -0.588890 1.910248 -0.104105
v -0.429077 1.910248 -0.104105
v -0.429077 2.029711 -0.104105
v -0.429077 2.029711 0.055709
v -0.332368 2.029711 0.055709
v -0.332368 2.029711 -0.104105
v -0.332368 1.910248 -0.104105
v -0.172556 1.910248 -0.104105
v -0.172556 2.029711 -0.104105
v -0.172556 2.029711 0.055709
v -1.066589 1.910248 0.057936
v -1.066589 1.910248 -0.101879
v -1.066589 1.910248 0.570980
v -1.066589 1.910248 0.411166
v -0.805579 1.889278 0.810669
v -0.805579 1.889279 0.163329
v -0.906775 2.029711 0.411165
v -0.906775 2.029711 0.570979
v -1.066589 2.029711 0.570980
v -0.973854 1.766620 -0.020615
v -0.599970 1.460163 0.993907
v -0.413026 1.460163 0.993907
v -0.039143 1.460163 0.588097
v -0.039143 1.460163 0.385194
v -1.066589 2.029711 -0.101879
v -1.066589 2.029711 0.057936
v -1.066589 2.029711 0.411166
v -0.973854 1.460163 0.385194
v -0.973854 1.460163 0.588097
v -0.039143 0.456184 0.993907
v -0.413026 1.198076 0.993907
v -0.973854 0.456184 0.993907
v -0.599970 1.198076 0.993907
v -0.583982 1.437748 0.907140
v -0.429015 1.437748 0.907140
v -0.413026 1.460163 -0.020615
v -0.599970 1.460163 -0.020615
v -0.039143 0.456184 -0.020615
v -0.039143 1.198076 0.385194
v -0.039143 1.198076 0.588097
v -0.119084 1.437748 0.570744
v -0.119084 1.437748 0.402547
v -1.066589 1.910248 0.314458
v -1.066589 1.910248 0.154644
v -0.906775 2.029711 0.154643
v -0.906775 2.029711 0.314457
v -0.973854 1.198076 0.588097
v -0.973854 0.456184 -0.020615
v -0.973854 1.198076 0.385194
v -0.893912 1.437748 0.402547
v -0.893912 1.437748 0.570744
v -0.429015 1.220491 0.907140
v -0.583982 1.220491 0.907140
v -0.599970 1.198076 -0.020615
v -0.413026 1.198076 -0.020615
v -0.429015 1.437748 0.066153
v -0.583982 1.437748 0.066153
v -0.119084 1.220491 0.402547
v -0.119084 1.220491 0.570744
v -1.066589 2.029711 0.314458
v -1.066589 2.029711 0.154644
v -0.893912 1.220491 0.570744
v -0.893912 1.220491 0.402547
v -1.038046 0.378441 1.063580
v 0.025049 0.378441 1.063580
v -0.583982 1.220491 0.066153
v -0.429015 1.220491 0.066153
v 0.025049 0.378441 -0.090288
v -1.038046 0.378441 -0.090288
v -0.604143 0.080653 1.063580
v -0.877692 0.080653 1.063580
v -1.038046 0.006210 1.063580
v 0.025049 0.006210 1.063580
v -0.180230 0.258742 1.063580
v -0.180230 0.172567 1.063580
v -0.453779 0.172567 1.063580
v -0.604143 0.166829 1.063580
v -0.877692 0.166829 1.063580
v -0.453779 0.258743 1.063580
v 0.025049 0.097392 0.403501
v 0.025049 0.123089 0.607318
v 0.025049 0.123089 0.880867
v 0.025049 0.006210 -0.090288
v 0.025049 0.183568 0.129952
v 0.025049 0.097392 0.129952
v 0.025049 0.183568 0.403501
v 0.025049 0.209265 0.880867
v 0.025049 0.209265 0.607318
v -1.038046 0.286890 0.880878
v -1.038046 0.200714 0.880878
v -1.038046 0.006210 -0.090288
v -1.038046 0.097392 0.129963
v -1.038046 0.183568 0.129963
v -1.038046 0.183568 0.403512
v -1.038046 0.097392 0.403512
v -1.038046 0.200714 0.607329
v -1.038046 0.286890 0.607329
v -0.600482 0.179327 -0.090288
v -0.396667 0.058712 -0.090288
v -0.123118 0.058712 -0.090288
v -0.123118 0.144888 -0.090288
v -0.874031 0.179327 -0.090288
v -0.600482 0.265503 -0.090288
v -0.874031 0.265503 -0.090288
v -0.396667 0.144888 -0.090288
v -1.061394 0.183568 0.403164
v -1.061394 0.097392 0.403164
v -1.057333 0.183568 0.129676
v -1.057333 0.097392 0.129676
v -1.070447 0.286890 0.880398
v -1.070447 0.200714 0.880398
v -1.066388 0.286890 0.606908
v -1.066388 0.200714 0.606908
v 0.048708 0.123089 0.881218
v 0.048708 0.209265 0.881218
v 0.045607 0.123089 0.607623
v 0.045607 0.209265 0.607623
v 0.057763 0.097392 0.403987
v 0.057763 0.183568 0.403987
v 0.054662 0.097392 0.130391
v 0.054662 0.183568 0.130391
v -0.599970 0.179327 -0.124845
v -0.599970 0.265503 -0.124845
v -0.873564 0.179327 -0.121744
v -0.873564 0.265503 -0.121744
v -0.122738 0.058712 -0.115790
v -0.122738 0.144888 -0.115790
v -0.396333 0.058712 -0.112689
v -0.396333 0.144888 -0.112689
v -0.180700 0.258742 1.095152
v -0.180700 0.172567 1.095152
v -0.454188 0.258743 1.091093
v -0.454188 0.172567 1.091093
v -0.604479 0.166829 1.086097
v -0.604479 0.080653 1.086097
v -0.877967 0.166829 1.082036
v -0.877967 0.080653 1.082036
vn -1.0000 -0.0000 0.0000
vn 0.0000 0.0000 -1.0000
vn 0.0000 1.0000 0.0000
vn 0.0000 -0.0000 1.0000
vn 1.0000 -0.0000 0.0000
vn 0.0000 -1.0000 0.0000
vn 0.0000 0.0000 0.0000
vn -0.1278 -0.9712 -0.2012
vn 0.0897 -0.9925 -0.0828
vn 0.0711 -0.9916 -0.1077
vn -0.9051 -0.4141 -0.0968
vn -0.2624 -0.8750 0.4070
vn -0.8894 -0.4056 0.2107
vn 0.1196 -0.9885 0.0925
vn 0.0623 -0.9652 0.2539
vn 0.0000 -0.9682 0.2501
vn 0.2700 -0.9629 0.0000
vn -0.2700 -0.9629 0.0000
vn -0.9834 0.0000 0.1812
vn 0.9834 -0.0000 0.1812
vn 0.0000 -0.9682 -0.2501
vn 0.2121 -0.0000 0.9772
vn 0.2121 0.0000 -0.9772
vn -0.2121 0.0000 -0.9772
vn -0.2121 -0.0000 0.9772
vn 0.0000 0.6674 0.7447
vn 0.0000 0.9682 0.2501
vn 0.9834 0.0000 -0.1812
vn -0.9834 -0.0000 -0.1812
vn 0.7711 0.6367 0.0000
vn 0.2700 0.9629 0.0000
vn -0.7711 0.6367 0.0000
vn -0.2700 0.9629 0.0000
vn 0.0000 0.6674 -0.7447
vn 0.0000 0.9682 -0.2501
vn -0.0149 -0.0000 0.9999
vn -0.9999 0.0000 -0.0148
vn 0.0149 0.0000 -0.9999
vn -0.0148 0.0000 0.9999
vn 0.9999 0.0000 -0.0113
vn 0.0148 0.0000 -0.9999
vn 0.9999 0.0000 0.0148
vn -0.0113 0.0000 -0.9999
vn -0.9999 0.0000 -0.0149
vn 0.9999 0.0000 0.0149
usemtl LightRock
s 1
f 1//1 2//1 3//1 4//1 5//1 6//1 7//1 8//1 9//1 10//1 11//1 12//1 13//1 14//1 15//1 16//1 17//1 18//1 19//1 20//1
f 21//2 22//2 23//2 1//2 20//2 24//2
f 1//3 23//3 25//3 26//3 27//3 28//3 29//3 14//3 13//3 30//3 31//3 10//3 9//3 32//3 33//3 6//3 5//3 34//3 35//3 2//3
f 36//4 37//4 38//4 3//4 2//4 35//4
f 39//1 21//1 24//1 40//1
f 41//3 22//3 21//3 39//3
f 22//5 41//5 42//5 43//5 44//5 25//5 23//5
f 20//6 19//6 43//6 42//6 40//6 24//6
f 34//5 45//5 36//5 35//5
f 36//3 45//3 46//3 37//3
f 37//1 46//1 47//1 38//1
f 3//6 38//6 47//6 4//6
f 41//4 39//4 40//4 42//4
f 48//4 49//4 50//4 51//4 52//4 53//4 54//4 55//4 56//4 57//4 58//4 59//4 60//4 44//4 43//4 19//4 18//7 61//7 62//4 63//4
f 46//2 45//2 34//2 5//2 4//2 47//2
f 64//1 65//1 66//1 48//1 63//1 67//1
f 68//5 69//5 70//5 50//5 49//5 71//5
f 50//6 70//6 72//6 51//6
f 73//1 74//1 75//1 52//1 51//1 72//1
f 76//5 77//5 78//5 54//5 53//5 79//5
f 54//6 78//6 80//6 55//6
f 81//1 82//1 83//1 56//1 55//1 80//1
f 84//5 85//5 86//5 58//5 57//5 87//5
f 58//6 86//6 88//6 59//6
f 89//1 90//1 91//1 60//1 59//1 88//1
f 92//5 93//5 94//5 95//5 96//5 97//5 98//5 99//5 100//5 101//5 102//5 103//5 104//5 105//5 106//5 62//5 61//5 107//5 108//5 109//5
f 110//4 64//4 67//4 111//4
f 110//3 112//3 65//3 64//3
f 65//2 112//2 113//2 106//2 105//2 114//2 66//2
f 115//3 26//3 25//3 44//3 60//3 91//3 87//3 57//3 56//3 83//3 79//3 53//3 52//3 75//3 71//3 49//3 48//3 66//3 114//3
f 75//2 74//2 68//2 71//2
f 73//3 69//3 68//3 74//3
f 69//4 73//4 72//4 70//4
f 83//2 82//2 76//2 79//2
f 81//3 77//3 76//3 82//3
f 77//4 81//4 80//4 78//4
f 91//2 90//2 84//2 87//2
f 89//3 85//3 84//3 90//3
f 85//4 89//4 88//4 86//4
f 116//7 117//7 61//7 18//7
f 117//7 118//7 107//7 61//7
f 119//4 120//4 121//4 122//4 92//4 109//4 123//4
f 105//3 104//3 124//3 125//3 101//3 100//3 126//3 127//3 97//3 96//3 128//3 129//3 93//3 92//3 122//3 130//3 115//3 114//3
f 131//2 132//2 133//2 94//2 93//2 129//2
f 94//6 133//6 134//6 95//6
f 135//4 136//4 128//4 96//4 95//4 134//4
f 137//2 138//2 139//2 98//2 97//2 127//2
f 98//6 139//6 140//6 99//6
f 141//4 142//4 126//4 100//4 99//4 140//4
f 143//2 144//2 145//2 102//2 101//2 125//2
f 102//6 145//6 146//6 103//6
f 147//4 148//4 124//4 104//4 103//4 146//4
f 149//2 150//2 151//2 152//2 153//2 154//2 155//2 156//2 157//2 158//2 159//2 160//2 161//2 162//2 163//2 108//2 107//2 17//2 16//2 164//2
f 163//6 165//6 166//6 123//6 109//6 108//6
f 112//5 110//5 111//5 113//5
f 18//7 17//7 167//7 116//7
f 117//8 116//9 168//10 169//11
f 118//12 117//8 169//11 170//13
f 171//5 119//5 123//5 166//5
f 119//3 171//3 172//3 120//3
f 120//1 172//1 165//1 163//1 162//1 121//1
f 124//1 148//1 143//1 125//1
f 126//1 142//1 137//1 127//1
f 128//1 136//1 131//1 129//1
f 115//1 130//1 173//1 174//1
f 135//3 132//3 131//3 136//3
f 132//5 135//5 134//5 133//5
f 141//3 138//3 137//3 142//3
f 138//5 141//5 140//5 139//5
f 147//3 144//3 143//3 148//3
f 144//5 147//5 146//5 145//5
f 113//6 111//6 67//6 63//6 62//6 106//6
f 118//7 167//7 17//7 107//7
f 175//5 176//5 29//5 28//5 149//5 164//5 177//5
f 28//3 27//3 130//3 122//3 121//3 162//3 161//3 178//3 179//3 158//3 157//3 180//3 181//3 154//3 153//3 182//3 183//3 150//3 149//3
f 184//1 185//1 186//1 151//1 150//1 183//1
f 151//6 186//6 187//6 152//6
f 188//5 189//5 182//5 153//5 152//5 187//5
f 190//1 191//1 192//1 155//1 154//1 181//1
f 155//6 192//6 193//6 156//6
f 194//5 195//5 180//5 157//5 156//5 193//5
f 196//1 197//1 198//1 159//1 158//1 179//1
f 159//6 198//6 199//6 160//6
f 200//5 201//5 178//5 161//5 160//5 199//5
f 202//6 203//6 177//6 164//6 16//6 15//6
f 172//2 171//2 166//2 165//2
f 7//6 204//6 205//6 8//6
f 27//5 26//5 206//5 207//5
f 32//5 208//5 209//5 33//5
f 209//4 210//4 204//4 7//4 6//4 33//4
f 116//9 167//14 211//15 168//10
f 169//4 168//4 212//4 213//4
f 167//14 118//12 170//13 211//15
f 170//5 169//5 214//5 215//5
f 26//2 115//2 174//2 206//2
f 130//4 27//4 207//4 173//4
f 174//3 173//3 207//3 206//3
f 216//2 175//2 177//2 203//2
f 176//3 175//3 216//3 217//3
f 176//4 217//4 202//4 15//4 14//4 29//4
f 182//4 189//4 184//4 183//4
f 184//3 189//3 188//3 185//3
f 185//2 188//2 187//2 186//2
f 180//4 195//4 190//4 181//4
f 190//3 195//3 194//3 191//3
f 191//2 194//2 193//2 192//2
f 178//4 201//4 196//4 179//4
f 196//3 201//3 200//3 197//3
f 197//2 200//2 199//2 198//2
f 217//1 216//1 203//1 202//1
f 210//1 218//1 205//1 204//1
f 218//2 208//2 32//2 9//2 8//2 205//2
f 209//3 208//3 218//3 210//3
f 168//1 211//1 219//1 220//1
f 221//4 169//4 213//4 222//4
f 168//4 223//4 224//4 212//4
f 213//16 212//16 225//16 226//16
f 211//2 170//2 227//2 228//2
f 229//5 170//5 215//5 230//5
f 169//5 221//5 231//5 214//5
f 215//17 214//17 232//17 233//17
f 11//6 234//6 235//6 12//6
f 30//5 236//5 237//5 31//5
f 223//1 168//1 220//1 238//1
f 211//1 239//1 240//1 219//1
f 220//18 219//18 241//18 242//18
f 223//4 221//4 222//4 224//4
f 222//19 213//19 226//19 243//19
f 212//20 224//20 244//20 225//20
f 239//2 211//2 228//2 245//2
f 170//2 229//2 246//2 227//2
f 228//21 227//21 247//21 248//21
f 221//5 229//5 230//5 231//5
f 230//22 215//22 233//22 249//22
f 214//23 231//23 250//23 232//23
f 237//4 251//4 234//4 11//4 10//4 31//4
f 251//1 252//1 235//1 234//1
f 252//2 236//2 30//2 13//2 12//2 235//2
f 237//3 236//3 252//3 251//3
f 239//1 223//1 238//1 240//1
f 238//24 220//24 242//24 253//24
f 219//25 240//25 254//25 241//25
f 223//26 255//26 256//26 221//26
f 224//27 222//27 243//27 244//27
f 229//2 239//2 245//2 246//2
f 245//28 228//28 248//28 257//28
f 227//29 246//29 258//29 247//29
f 221//30 256//30 259//30 229//30
f 231//31 230//31 249//31 250//31
f 239//32 260//32 255//32 223//32
f 240//33 238//33 253//33 254//33
f 261//4 262//4 263//4 264//4 256//4 265//4 266//4 267//4 268//4
f 262//4 269//4 268//4 267//4 270//4 265//4 256//4 255//4 263//4
f 229//34 259//34 260//34 239//34
f 246//35 245//35 257//35 258//35
f 271//5 272//5 273//5 264//5 274//5 259//5 275//5 276//5
f 271//5 277//5 275//5 259//5 256//5 264//5 273//5 278//5 279//5 272//5
f 280//1 281//1 255//1 260//1 282//1 283//1 284//1 285//1 286//1 287//1 288//1
f 281//1 287//1 286//1 283//1 282//1 263//1 255//1
f 263//6 282//6 274//6 264//6
f 289//2 290//2 291//2 292//2 259//2 274//2 282//2 293//2
f 289//2 294//2 295//2 293//2 282//2 260//2 259//2 292//2 296//2 290//2
usemtl Black
f 226//4 225//4 244//4 243//4
f 233//5 232//5 250//5 249//5
f 242//1 241//1 254//1 253//1
f 248//2 247//2 258//2 257//2
usemtl DarkRock
f 285//36 297//36 298//36 286//36
f 284//3 299//3 297//3 285//3
f 297//37 299//37 300//37 298//37
f 286//6 298//6 300//6 283//6
f 283//38 300//38 299//38 284//38
f 280//39 301//39 302//39 281//39
f 288//3 303//3 301//3 280//3
f 301//37 303//37 304//37 302//37
f 281//6 302//6 304//6 287//6
f 287//38 304//38 303//38 288//38
f 273//36 305//36 306//36 278//36
f 272//6 307//6 305//6 273//6
f 305//40 307//40 308//40 306//40
f 278//3 306//3 308//3 279//3
f 279//41 308//41 307//41 272//41
f 271//39 309//39 310//39 277//39
f 276//6 311//6 309//6 271//6
f 309//40 311//40 312//40 310//40
f 277//3 310//3 312//3 275//3
f 275//41 312//41 311//41 276//41
f 289//42 313//42 314//42 294//42
f 293//6 315//6 313//6 289//6
f 313//43 315//43 316//43 314//43
f 294//3 314//3 316//3 295//3
f 295//44 316//44 315//44 293//44
f 291//45 317//45 318//45 292//45
f 290//6 319//6 317//6 291//6
f 317//43 319//43 320//43 318//43
f 292//3 318//3 320//3 296//3
f 296//44 320//44 319//44 290//44
f 265//45 321//45 322//45 266//45
f 270//3 323//3 321//3 265//3
f 321//39 323//39 324//39 322//39
f 266//6 322//6 324//6 267//6
f 267//37 324//37 323//37 270//37
f 268//45 325//45 326//45 261//45
f 269//3 327//3 325//3 268//3
f 325//39 327//39 328//39 326//39
f 261//6 326//6 328//6 262//6
f 262//44 328//44 327//44 269//44
